<?xml version="1.0" encoding="UTF-8" standalone="no"?>
<!DOCTYPE svg PUBLIC "-//W3C//DTD SVG 1.0//EN" "http://www.w3.org/TR/2001/PR-SVG-20010719/DTD/svg10.dtd">
<svg width="42cm" height="12cm" viewBox="90 269 837 231" xmlns="http://www.w3.org/2000/svg" xmlns:xlink="http://www.w3.org/1999/xlink">
  <g>
    <rect style="fill: #ffffff" x="399.975" y="291" width="184.05" height="38"/>
    <rect style="fill: none; fill-opacity:0; stroke-width: 2; stroke: #000000" x="399.975" y="291" width="184.05" height="38"/>
    <text font-size="12.7998" style="fill: #000000;text-anchor:middle;font-family:sans-serif;font-style:normal;font-weight:normal" x="492" y="313.9">
      <tspan x="492" y="313.9">subsequence-DTWsearch</tspan>
    </text>
  </g>
  <text font-size="28.2222" style="fill: #000000;text-anchor:start;font-family:sans-serif;font-style:normal;font-weight:normal" x="129" y="315.65">
    <tspan x="129" y="315.65">audio</tspan>
  </text>
  <text font-size="28.2222" style="fill: #000000;text-anchor:start;font-family:sans-serif;font-style:normal;font-weight:normal" x="121" y="456.65">
    <tspan x="121" y="456.65">score with </tspan>
    <tspan x="121" y="491.928">lyrics</tspan>
  </text>
  <text font-size="28.2222" style="fill: #000000;text-anchor:start;font-family:sans-serif;font-style:normal;font-weight:normal" x="315" y="385.65">
    <tspan x="315" y="385.65">tempo</tspan>
  </text>
  <g>
    <rect style="fill: #ffffff" x="91.925" y="361.75" width="135.55" height="38"/>
    <rect style="fill: none; fill-opacity:0; stroke-width: 2; stroke: #000000" x="91.925" y="361.75" width="135.55" height="38"/>
    <text font-size="12.7998" style="fill: #000000;text-anchor:middle;font-family:sans-serif;font-style:normal;font-weight:normal" x="159.7" y="384.65">
      <tspan x="159.7" y="384.65">tempo estimation</tspan>
    </text>
  </g>
  <g>
    <rect style="fill: #ffffff" x="305.1" y="440.85" width="142.6" height="38"/>
    <rect style="fill: none; fill-opacity:0; stroke-width: 2; stroke: #000000" x="305.1" y="440.85" width="142.6" height="38"/>
    <text font-size="12.7998" style="fill: #000000;text-anchor:middle;font-family:sans-serif;font-style:normal;font-weight:normal" x="376.4" y="463.75">
      <tspan x="376.4" y="463.75">query construction</tspan>
    </text>
  </g>
  <text font-size="28.2222" style="fill: #000000;text-anchor:start;font-family:sans-serif;font-style:normal;font-weight:normal" x="448" y="384.65">
    <tspan x="448" y="384.65">query</tspan>
  </text>
  <text font-size="28.2222" style="fill: #000000;text-anchor:start;font-family:sans-serif;font-style:normal;font-weight:normal" x="640" y="295.65">
    <tspan x="640" y="295.65">n-best </tspan>
    <tspan x="640" y="330.928">candidate segments</tspan>
  </text>
  <g>
    <rect style="fill: #ffffff" x="626.75" y="359.95" width="132.7" height="54"/>
    <rect style="fill: none; fill-opacity:0; stroke-width: 2; stroke: #000000" x="626.75" y="359.95" width="132.7" height="54"/>
    <text font-size="12.7998" style="fill: #000000;text-anchor:middle;font-family:sans-serif;font-style:normal;font-weight:normal" x="693.1" y="382.85">
      <tspan x="693.1" y="382.85">Hierarchical HHM</tspan>
      <tspan x="693.1" y="398.85">decoding</tspan>
    </text>
  </g>
  <text font-size="28.2222" style="fill: #000000;text-anchor:start;font-family:sans-serif;font-style:normal;font-weight:normal" x="649" y="457.65">
    <tspan x="649" y="457.65">ranked </tspan>
    <tspan x="649" y="492.928">result segments</tspan>
  </text>
  <g>
    <line style="fill: none; fill-opacity:0; stroke-width: 2; stroke: #000000" x1="161" y1="327.65" x2="160.427" y2="351.052"/>
    <polygon style="fill: #000000" points="160.243,358.55 155.49,348.431 160.427,351.052 165.487,348.676 "/>
    <polygon style="fill: none; fill-opacity:0; stroke-width: 2; stroke: #000000" points="160.243,358.55 155.49,348.431 160.427,351.052 165.487,348.676 "/>
  </g>
  <g>
    <line style="fill: none; fill-opacity:0; stroke-width: 2; stroke: #000000" x1="160" y1="435.9" x2="159.862" y2="410.48"/>
    <polygon style="fill: #000000" points="159.821,402.981 164.875,412.953 159.862,410.48 154.875,413.008 "/>
    <polygon style="fill: none; fill-opacity:0; stroke-width: 2; stroke: #000000" points="159.821,402.981 164.875,412.953 159.862,410.48 154.875,413.008 "/>
  </g>
  <g>
    <line style="fill: none; fill-opacity:0; stroke-width: 2; stroke: #000000" x1="228.443" y1="380.705" x2="301.264" y2="380.656"/>
    <polygon style="fill: #000000" points="308.764,380.651 298.767,385.658 301.264,380.656 298.761,375.658 "/>
    <polygon style="fill: none; fill-opacity:0; stroke-width: 2; stroke: #000000" points="308.764,380.651 298.767,385.658 301.264,380.656 298.761,375.658 "/>
  </g>
  <g>
    <polyline style="fill: none; fill-opacity:0; stroke-width: 2; stroke: #000000" points="448.595,459.85 497,459.85 497,407.636 "/>
    <polygon style="fill: #000000" points="497,400.136 502,410.136 497,407.636 492,410.136 "/>
    <polygon style="fill: none; fill-opacity:0; stroke-width: 2; stroke: #000000" points="497,400.136 502,410.136 497,407.636 492,410.136 "/>
  </g>
  <g>
    <line style="fill: none; fill-opacity:0; stroke-width: 2; stroke: #000000" x1="277" y1="458.9" x2="295.369" y2="459.521"/>
    <polygon style="fill: #000000" points="302.865,459.774 292.702,464.434 295.369,459.521 293.04,454.439 "/>
    <polygon style="fill: none; fill-opacity:0; stroke-width: 2; stroke: #000000" points="302.865,459.774 292.702,464.434 295.369,459.521 293.04,454.439 "/>
  </g>
  <g>
    <line style="fill: none; fill-opacity:0; stroke-width: 2; stroke: #000000" x1="410" y1="378.9" x2="433.264" y2="378.724"/>
    <polygon style="fill: #000000" points="440.764,378.667 430.802,383.743 433.264,378.724 430.726,373.743 "/>
    <polygon style="fill: none; fill-opacity:0; stroke-width: 2; stroke: #000000" points="440.764,378.667 430.802,383.743 433.264,378.724 430.726,373.743 "/>
  </g>
  <g>
    <line style="fill: none; fill-opacity:0; stroke-width: 2; stroke: #000000" x1="493" y1="362.65" x2="492.289" y2="338.732"/>
    <polygon style="fill: #000000" points="492.066,331.235 497.361,341.082 492.289,338.732 487.366,341.379 "/>
    <polygon style="fill: none; fill-opacity:0; stroke-width: 2; stroke: #000000" points="492.066,331.235 497.361,341.082 492.289,338.732 487.366,341.379 "/>
  </g>
  <g>
    <line style="fill: none; fill-opacity:0; stroke-width: 2; stroke: #000000" x1="219" y1="308.65" x2="390.239" y2="309.927"/>
    <polygon style="fill: #000000" points="397.739,309.983 387.702,314.909 390.239,309.927 387.777,304.909 "/>
    <polygon style="fill: none; fill-opacity:0; stroke-width: 2; stroke: #000000" points="397.739,309.983 387.702,314.909 390.239,309.927 387.777,304.909 "/>
  </g>
  <g>
    <line style="fill: none; fill-opacity:0; stroke-width: 2; stroke: #000000" x1="589" y1="309.65" x2="629.264" y2="309.65"/>
    <polygon style="fill: #000000" points="636.764,309.65 626.764,314.65 629.264,309.65 626.764,304.65 "/>
    <polygon style="fill: none; fill-opacity:0; stroke-width: 2; stroke: #000000" points="636.764,309.65 626.764,314.65 629.264,309.65 626.764,304.65 "/>
  </g>
  <g>
    <line style="fill: none; fill-opacity:0; stroke-width: 2; stroke: #000000" x1="695" y1="334.65" x2="694.471" y2="349.219"/>
    <polygon style="fill: #000000" points="694.198,356.714 689.565,346.539 694.471,349.219 699.558,346.902 "/>
    <polygon style="fill: none; fill-opacity:0; stroke-width: 2; stroke: #000000" points="694.198,356.714 689.565,346.539 694.471,349.219 699.558,346.902 "/>
  </g>
  <g>
    <line style="fill: none; fill-opacity:0; stroke-width: 2; stroke: #000000" x1="532" y1="377.65" x2="616.264" y2="376.754"/>
    <polygon style="fill: #000000" points="623.764,376.674 613.818,381.78 616.264,376.754 613.711,371.78 "/>
    <polygon style="fill: none; fill-opacity:0; stroke-width: 2; stroke: #000000" points="623.764,376.674 613.818,381.78 616.264,376.754 613.711,371.78 "/>
  </g>
  <g>
    <line style="fill: none; fill-opacity:0; stroke-width: 2; stroke: #000000" x1="693.1" y1="413.95" x2="693.041" y2="427.914"/>
    <polygon style="fill: #000000" points="693.009,435.414 688.052,425.393 693.041,427.914 698.052,425.435 "/>
    <polygon style="fill: none; fill-opacity:0; stroke-width: 2; stroke: #000000" points="693.009,435.414 688.052,425.393 693.041,427.914 698.052,425.435 "/>
  </g>
</svg>
